<svg xmlns="http://www.w3.org/2000/svg" viewBox="0 0 127.89 74.98"><defs><style>.cls-1{fill:#fff;}</style></defs><title>float logo</title><g id="Layer_2" data-name="Layer 2"><g id="Layer_1-2" data-name="Layer 1"><g id="Layer_2-2" data-name="Layer 2"><g id="Group_3_copy" data-name="Group 3 copy"><g id="Group_4" data-name="Group 4"><g id="Ellipse_1" data-name="Ellipse 1"><ellipse cx="43.93" cy="25.75" rx="28.97" ry="25.75"/></g><g id="Ellipse_1_copy_2" data-name="Ellipse 1 copy 2"><ellipse cx="84.48" cy="25.75" rx="28.97" ry="25.75"/></g><g id="Vector_Smart_Object_Image" data-name="Vector Smart Object Image"><path class="cls-1" d="M55.51,25.75A24.36,24.36,0,0,0,64.2,44.13a24.36,24.36,0,0,0,8.69-18.38A24.36,24.36,0,0,0,64.2,7.36,24.36,24.36,0,0,0,55.51,25.75Z"/></g><g id="Group_5" data-name="Group 5"><g id="f"><path class="cls-1" d="M29.17,20.8h.71v-.9a5.79,5.79,0,0,1,.36-2.24,2.27,2.27,0,0,1,1.21-1.21,5.88,5.88,0,0,1,2.33-.36q2.63,0,2.63,1.29a1,1,0,0,1-.28.71.86.86,0,0,1-.64.3,4.63,4.63,0,0,1-.61-.06,4.91,4.91,0,0,0-.73-.06q-.81,0-1,.48a3.22,3.22,0,0,0-.23,1.37v.71h.74q1.72,0,1.72,1,0,.74-.46.93a3.22,3.22,0,0,1-1.29.2h-.71v7.9a1.93,1.93,0,0,1-.42,1.36,1.41,1.41,0,0,1-1.09.47,1.37,1.37,0,0,1-1.06-.47,1.93,1.93,0,0,1-.42-1.36V23h-.82a1.57,1.57,0,0,1-1-.3,1,1,0,0,1-.36-.79Q27.67,20.8,29.17,20.8Z"/></g><g id="o"><path d="M70.4,26.65A7.08,7.08,0,0,1,70,29.12a5.47,5.47,0,0,1-1.21,1.93,5.34,5.34,0,0,1-1.89,1.25,6.69,6.69,0,0,1-2.48.44A6.51,6.51,0,0,1,62,32.31a5.41,5.41,0,0,1-3.1-3.22,7.08,7.08,0,0,1-.41-2.47,7.16,7.16,0,0,1,.42-2.5,5.43,5.43,0,0,1,1.2-1.93A5.28,5.28,0,0,1,62,21a7.16,7.16,0,0,1,4.93,0A5.32,5.32,0,0,1,70,24.2,7.12,7.12,0,0,1,70.4,26.65Zm-3,0a4.51,4.51,0,0,0-.8-2.83,2.63,2.63,0,0,0-2.18-1,2.69,2.69,0,0,0-1.55.46,2.89,2.89,0,0,0-1,1.35,6.12,6.12,0,0,0,0,4.14,3,3,0,0,0,1,1.35,2.66,2.66,0,0,0,1.57.47,2.62,2.62,0,0,0,2.18-1A4.51,4.51,0,0,0,67.39,26.65Z"/></g><g id="t"><path class="cls-1" d="M93,20.8h.33V19q0-.73,0-1.14a1.68,1.68,0,0,1,.21-.71,1.35,1.35,0,0,1,.51-.5,1.44,1.44,0,0,1,.73-.19,1.48,1.48,0,0,1,1,.43,1.29,1.29,0,0,1,.39.7,6.37,6.37,0,0,1,.08,1.17v2h1.1a1.41,1.41,0,0,1,1,.3,1,1,0,0,1,.33.77.87.87,0,0,1-.48.85,3.1,3.1,0,0,1-1.37.24h-.56V28.5a8.9,8.9,0,0,0,.05,1.08,1.1,1.1,0,0,0,.26.64.9.9,0,0,0,.7.24,3.69,3.69,0,0,0,.71-.1,3.71,3.71,0,0,1,.7-.09.91.91,0,0,1,.64.29,1,1,0,0,1,.29.72,1.2,1.2,0,0,1-.79,1.11,5.36,5.36,0,0,1-2.28.39,3.94,3.94,0,0,1-2.14-.48,2.2,2.2,0,0,1-1-1.29,8.88,8.88,0,0,1-.23-2.23V23H93a1.43,1.43,0,0,1-1-.31,1,1,0,0,1-.34-.78,1,1,0,0,1,.35-.77A1.57,1.57,0,0,1,93,20.8Z"/></g><g id="l"><path class="cls-1" d="M46.18,30.9v-13a2,2,0,0,1,.4-1.36,1.36,1.36,0,0,1,1.08-.44,1.42,1.42,0,0,1,1.1.46,2,2,0,0,1,.42,1.37v13a1.93,1.93,0,0,1-.42,1.37,1.43,1.43,0,0,1-1.09.46,1.36,1.36,0,0,1-1.08-.48A2,2,0,0,1,46.18,30.9Z"/></g><g id="a"><path class="cls-1" d="M84.24,31.06a9.29,9.29,0,0,1-2.1,1.29,5.89,5.89,0,0,1-2.29.42,4.33,4.33,0,0,1-2-.46,3.33,3.33,0,0,1-1.35-1.24A3.22,3.22,0,0,1,76,29.39a3,3,0,0,1,.75-2.12A3.91,3.91,0,0,1,78.9,26.1l1.42-.3q1.13-.23,1.93-.42T84,24.91a3.14,3.14,0,0,0-.48-1.74,2.15,2.15,0,0,0-1.76-.55,3.66,3.66,0,0,0-1.72.32,2.8,2.8,0,0,0-1,1,10,10,0,0,1-.59.84,1,1,0,0,1-.73.21,1.29,1.29,0,0,1-.88-.32,1.06,1.06,0,0,1-.37-.83,2.57,2.57,0,0,1,.56-1.54A4,4,0,0,1,78.82,21a7.89,7.89,0,0,1,3-.48,8.37,8.37,0,0,1,3.12.47,2.9,2.9,0,0,1,1.6,1.48A6.47,6.47,0,0,1,87,25.17q0,1.06,0,1.8t0,1.64a6,6,0,0,0,.28,1.76,5.55,5.55,0,0,1,.28,1.18,1.11,1.11,0,0,1-.43.84,1.46,1.46,0,0,1-1,.38,1.33,1.33,0,0,1-.91-.44A6.44,6.44,0,0,1,84.24,31.06ZM84,26.71a15.1,15.1,0,0,1-1.93.51q-1.29.27-1.74.4a2.38,2.38,0,0,0-.93.5,1.29,1.29,0,0,0-.44,1,1.53,1.53,0,0,0,.51,1.16,1.93,1.93,0,0,0,1.35.48,3.52,3.52,0,0,0,1.64-.39,2.57,2.57,0,0,0,1.11-1A4.6,4.6,0,0,0,84,27.14Z"/></g></g><path d="M4.77,69.75H1.64a2.12,2.12,0,0,0,.22,1,1.47,1.47,0,0,0,1.35.84,1.92,1.92,0,0,0,.52-.07,1.71,1.71,0,0,0,.46-.21A3.51,3.51,0,0,0,4.6,71l.49-.45a.52.52,0,0,1,.35-.11.58.58,0,0,1,.4.13.48.48,0,0,1,.15.38,1,1,0,0,1-.17.51,2,2,0,0,1-.51.56,2.92,2.92,0,0,1-.86.44,3.71,3.71,0,0,1-1.19.18,3.19,3.19,0,0,1-2.4-.88A3.27,3.27,0,0,1,0,69.38a4,4,0,0,1,.21-1.32,2.9,2.9,0,0,1,.62-1,2.67,2.67,0,0,1,1-.67,3.58,3.58,0,0,1,1.31-.23,3.11,3.11,0,0,1,1.61.4,2.6,2.6,0,0,1,1,1,2.69,2.69,0,0,1,.33,1.28.79.79,0,0,1-.35.78A2.15,2.15,0,0,1,4.77,69.75Zm-3.13-.91h2.9a1.94,1.94,0,0,0-.44-1.23,1.32,1.32,0,0,0-1-.41,1.28,1.28,0,0,0-1,.41,2.05,2.05,0,0,0-.46,1.26Z"/><path d="M10.7,72,9.54,70.26,8.4,72a3,3,0,0,1-.44.51.68.68,0,0,1-.45.15A.75.75,0,0,1,7,72.44.57.57,0,0,1,6.78,72a1.46,1.46,0,0,1,.33-.72l1.45-2.07L7.28,67.48A1.29,1.29,0,0,1,7,66.74a.56.56,0,0,1,.2-.43.74.74,0,0,1,.52-.18.69.69,0,0,1,.47.16,3,3,0,0,1,.43.5l1,1.42,1-1.42a2.75,2.75,0,0,1,.44-.5.7.7,0,0,1,.46-.15.78.78,0,0,1,.52.18.55.55,0,0,1,.21.43.76.76,0,0,1-.08.35,2.65,2.65,0,0,1-.26.4l-1.28,1.73L12,71.3a1.52,1.52,0,0,1,.34.73.55.55,0,0,1-.21.43.77.77,0,0,1-.52.18.7.7,0,0,1-.47-.16A2.72,2.72,0,0,1,10.7,72Z"/><path d="M15,67v.19A3.16,3.16,0,0,1,16,66.4a2.29,2.29,0,0,1,1.1-.26,2.55,2.55,0,0,1,1.36.38,2.62,2.62,0,0,1,1,1.11,3.89,3.89,0,0,1,.29,1.74,4.23,4.23,0,0,1-.16,1.38,3,3,0,0,1-.57,1,2.49,2.49,0,0,1-.86.64,2.53,2.53,0,0,1-1.06.23,2.23,2.23,0,0,1-1.15-.28,3.29,3.29,0,0,1-.89-.81v2.4q0,1-.77,1.05a.62.62,0,0,1-.6-.27,1.72,1.72,0,0,1-.15-.79V67a1,1,0,0,1,.2-.68.69.69,0,0,1,.54-.23.72.72,0,0,1,.55.23A1,1,0,0,1,15,67Zm3.13,2.33A2.77,2.77,0,0,0,18,68.27a1.59,1.59,0,0,0-.54-.7,1.28,1.28,0,0,0-.76-.24,1.42,1.42,0,0,0-1.12.52,2.28,2.28,0,0,0-.45,1.54,2.22,2.22,0,0,0,.45,1.49,1.41,1.41,0,0,0,1.12.53,1.29,1.29,0,0,0,.74-.23,1.59,1.59,0,0,0,.54-.69,2.75,2.75,0,0,0,.21-1.14Z"/><path d="M25.49,69.75H22.36a2.12,2.12,0,0,0,.22,1,1.47,1.47,0,0,0,1.35.84,1.92,1.92,0,0,0,.52-.07,1.71,1.71,0,0,0,.46-.21,3.51,3.51,0,0,0,.41-.31l.49-.45a.52.52,0,0,1,.35-.11.58.58,0,0,1,.4.13.48.48,0,0,1,.15.38,1,1,0,0,1-.17.51A2,2,0,0,1,26,72a2.92,2.92,0,0,1-.86.44,3.71,3.71,0,0,1-1.19.18,3.19,3.19,0,0,1-2.4-.88,3.27,3.27,0,0,1-.88-2.39A4,4,0,0,1,20.91,68a2.9,2.9,0,0,1,.62-1,2.67,2.67,0,0,1,1-.67,3.58,3.58,0,0,1,1.31-.23,3.11,3.11,0,0,1,1.61.4,2.6,2.6,0,0,1,1,1,2.69,2.69,0,0,1,.33,1.28.79.79,0,0,1-.35.78A2.15,2.15,0,0,1,25.49,69.75Zm-3.13-.91h2.9a1.94,1.94,0,0,0-.44-1.23,1.32,1.32,0,0,0-1-.41,1.28,1.28,0,0,0-1,.41,2.05,2.05,0,0,0-.46,1.26Z"/><path d="M29.7,70.32v1.34a1,1,0,0,1-.23.73.76.76,0,0,1-.58.24.73.73,0,0,1-.57-.25,1.05,1.05,0,0,1-.22-.73V67.21q0-1.08.78-1.08a.65.65,0,0,1,.57.25,1.39,1.39,0,0,1,.19.74,2.8,2.8,0,0,1,.59-.74,1.22,1.22,0,0,1,.81-.25,2.06,2.06,0,0,1,1,.25.75.75,0,0,1,.47.67.64.64,0,0,1-.2.48.63.63,0,0,1-.44.19,2,2,0,0,1-.42-.11,2,2,0,0,0-.59-.11.87.87,0,0,0-.57.18,1.18,1.18,0,0,0-.35.55,3.82,3.82,0,0,0-.17.86A9.22,9.22,0,0,0,29.7,70.32Z"/><path d="M34.22,65.38a.84.84,0,0,1-.57-.21.8.8,0,0,1,0-1.13h0a.82.82,0,0,1,.57-.22.84.84,0,0,1,.55.2.71.71,0,0,1,.24.58.73.73,0,0,1-.23.58A.81.81,0,0,1,34.22,65.38ZM35,67v4.62a1,1,0,0,1-.23.73.76.76,0,0,1-.58.25.72.72,0,0,1-.57-.25,1.06,1.06,0,0,1-.22-.72V67.08a1,1,0,0,1,.22-.71.74.74,0,0,1,.57-.24.77.77,0,0,1,.58.24A.93.93,0,0,1,35,67Z"/><path d="M41.13,69.75H38a2.12,2.12,0,0,0,.22,1,1.47,1.47,0,0,0,1.35.84,1.92,1.92,0,0,0,.52-.07,1.71,1.71,0,0,0,.46-.21A3.51,3.51,0,0,0,41,71l.49-.45a.52.52,0,0,1,.35-.11.58.58,0,0,1,.4.13.48.48,0,0,1,.15.38,1,1,0,0,1-.17.51,2,2,0,0,1-.51.56,2.92,2.92,0,0,1-.86.44,3.71,3.71,0,0,1-1.19.18,3.19,3.19,0,0,1-2.4-.88,3.27,3.27,0,0,1-.86-2.38,4,4,0,0,1,.21-1.32,2.9,2.9,0,0,1,.62-1,2.67,2.67,0,0,1,1-.67,3.58,3.58,0,0,1,1.31-.23,3.11,3.11,0,0,1,1.61.4,2.6,2.6,0,0,1,1,1,2.69,2.69,0,0,1,.33,1.28.79.79,0,0,1-.35.78A2.15,2.15,0,0,1,41.13,69.75ZM38,68.84h2.9a1.94,1.94,0,0,0-.44-1.23,1.32,1.32,0,0,0-1-.41,1.28,1.28,0,0,0-1,.41A2.05,2.05,0,0,0,38,68.87Z"/><path d="M45.25,67v.19a2.8,2.8,0,0,1,.92-.82,2.46,2.46,0,0,1,1.15-.26,2.3,2.3,0,0,1,1.13.28,1.75,1.75,0,0,1,.74.78,1.85,1.85,0,0,1,.21.63,6.56,6.56,0,0,1,0,.87v3a1.06,1.06,0,0,1-.22.73.73.73,0,0,1-.57.25.74.74,0,0,1-.58-.25,1,1,0,0,1-.22-.72V69a2.66,2.66,0,0,0-.17-1.24.89.89,0,0,0-.88-.42,1.3,1.3,0,0,0-.78.25,1.46,1.46,0,0,0-.52.7,5,5,0,0,0-.12,1.34v2a1,1,0,0,1-.23.73.76.76,0,0,1-.58.24.72.72,0,0,1-.57-.25,1,1,0,0,1-.22-.72V67a1,1,0,0,1,.2-.68.69.69,0,0,1,.54-.23.74.74,0,0,1,.38.1.71.71,0,0,1,.27.3A1.05,1.05,0,0,1,45.25,67Z"/><path d="M56.78,70.65a1.38,1.38,0,0,1-.18.64,2.19,2.19,0,0,1-.54.65,2.82,2.82,0,0,1-.92.5,3.92,3.92,0,0,1-1.25.19,3.06,3.06,0,0,1-2.32-.88,3.2,3.2,0,0,1-.87-2.31,3.82,3.82,0,0,1,.38-1.74,2.73,2.73,0,0,1,1.1-1.17A3.75,3.75,0,0,1,55,66.3a3,3,0,0,1,.88.47,2.25,2.25,0,0,1,.55.61,1.21,1.21,0,0,1,.19.61.64.64,0,0,1-.21.49.73.73,0,0,1-.52.2.52.52,0,0,1-.33-.1,1.62,1.62,0,0,1-.3-.33,2.42,2.42,0,0,0-.61-.67,1.5,1.5,0,0,0-2,.33,2.4,2.4,0,0,0-.43,1.51,2.93,2.93,0,0,0,.11.83,1.88,1.88,0,0,0,.32.64,1.38,1.38,0,0,0,.51.4,1.55,1.55,0,0,0,.66.14,1.48,1.48,0,0,0,.82-.22,2,2,0,0,0,.61-.68,1.56,1.56,0,0,1,.32-.42A.6.6,0,0,1,56,70a.62.62,0,0,1,.49.22A.71.71,0,0,1,56.78,70.65Z"/><path d="M62.64,69.75H59.51a2.12,2.12,0,0,0,.19,1,1.47,1.47,0,0,0,1.35.84,1.92,1.92,0,0,0,.52-.07,1.71,1.71,0,0,0,.46-.21,3.51,3.51,0,0,0,.41-.31l.49-.45a.52.52,0,0,1,.35-.11.58.58,0,0,1,.4.13.48.48,0,0,1,.15.38,1,1,0,0,1-.17.51,2,2,0,0,1-.51.56,2.92,2.92,0,0,1-.86.44,3.71,3.71,0,0,1-1.19.18,3.19,3.19,0,0,1-2.4-.89,3.27,3.27,0,0,1-.86-2.38A4,4,0,0,1,58.05,68a2.9,2.9,0,0,1,.62-1,2.67,2.67,0,0,1,1-.67A3.58,3.58,0,0,1,61,66.15a3.11,3.11,0,0,1,1.61.4,2.6,2.6,0,0,1,1,1,2.69,2.69,0,0,1,.33,1.28.79.79,0,0,1-.35.78A2.15,2.15,0,0,1,62.64,69.75Zm-3.13-.91h2.9A1.94,1.94,0,0,0,62,67.61a1.32,1.32,0,0,0-1-.41,1.28,1.28,0,0,0-1,.41,2.05,2.05,0,0,0-.46,1.26Z"/><path d="M68.4,66.27h.18V64.66a.9.9,0,0,1,.11-.38A.72.72,0,0,1,69,64a.76.76,0,0,1,.39-.1.79.79,0,0,1,.55.23.68.68,0,0,1,.21.37,3.38,3.38,0,0,1,0,.62v1.09h.59a.75.75,0,0,1,.52.16.53.53,0,0,1,.18.41.46.46,0,0,1-.25.45,1.65,1.65,0,0,1-.73.13h-.3v2.94a4.77,4.77,0,0,0,0,.58.59.59,0,0,0,.14.33.48.48,0,0,0,.37.13,2,2,0,0,0,.38,0,2,2,0,0,1,.38,0,.48.48,0,0,1,.35.16.52.52,0,0,1,.16.38.64.64,0,0,1-.42.59,2.85,2.85,0,0,1-1.21.21,2.1,2.1,0,0,1-1.14-.25,1.17,1.17,0,0,1-.51-.7,4.73,4.73,0,0,1-.12-1.19V67.42h-.21a.76.76,0,0,1-.53-.16.54.54,0,0,1-.18-.42.52.52,0,0,1,.19-.41A.84.84,0,0,1,68.4,66.27Z"/><path d="M74.12,64.75v2.37a3.42,3.42,0,0,1,.59-.56,2.14,2.14,0,0,1,.64-.31,2.69,2.69,0,0,1,.76-.1,2.22,2.22,0,0,1,1.08.26,2,2,0,0,1,1,1.39,5.06,5.06,0,0,1,.06.82v3.06a1.06,1.06,0,0,1-.22.73.74.74,0,0,1-.58.25q-.79,0-.79-1V69a2.48,2.48,0,0,0-.26-1.21.9.9,0,0,0-.87-.41,1.3,1.3,0,0,0-.77.24,1.46,1.46,0,0,0-.51.67,4.26,4.26,0,0,0-.13,1.27v2.12a1.08,1.08,0,0,1-.21.72.74.74,0,0,1-.59.25q-.79,0-.79-1V64.75a1.1,1.1,0,0,1,.21-.73.73.73,0,0,1,.58-.24.75.75,0,0,1,.59.25A1.08,1.08,0,0,1,74.12,64.75Z"/><path d="M84.27,69.75H81.14a2.12,2.12,0,0,0,.22,1,1.47,1.47,0,0,0,1.35.84,1.92,1.92,0,0,0,.52-.07,1.71,1.71,0,0,0,.46-.21A3.51,3.51,0,0,0,84.1,71l.49-.45a.52.52,0,0,1,.35-.11.58.58,0,0,1,.4.13.48.48,0,0,1,.15.38,1,1,0,0,1-.17.51,2,2,0,0,1-.51.56,2.92,2.92,0,0,1-.86.44,3.71,3.71,0,0,1-1.19.18,3.19,3.19,0,0,1-2.4-.88,3.27,3.27,0,0,1-.86-2.38A4,4,0,0,1,79.7,68a2.9,2.9,0,0,1,.62-1,2.67,2.67,0,0,1,1-.67,3.58,3.58,0,0,1,1.31-.23,3.11,3.11,0,0,1,1.61.4,2.6,2.6,0,0,1,1,1,2.69,2.69,0,0,1,.33,1.28.79.79,0,0,1-.35.78A2.15,2.15,0,0,1,84.27,69.75Zm-3.13-.91H84a1.94,1.94,0,0,0-.44-1.23,1.32,1.32,0,0,0-1-.41,1.28,1.28,0,0,0-1,.41,2,2,0,0,0-.46,1.26Z"/><path d="M90.7,65.38a.84.84,0,0,1-.57-.21.8.8,0,0,1,0-1.13h0a.82.82,0,0,1,.57-.22.84.84,0,0,1,.55.2.71.71,0,0,1,.24.58.73.73,0,0,1-.23.58A.81.81,0,0,1,90.7,65.38ZM91.49,67v4.62a1,1,0,0,1-.23.73.76.76,0,0,1-.58.25.72.72,0,0,1-.57-.25,1.06,1.06,0,0,1-.22-.72V67.08a1,1,0,0,1,.22-.71.74.74,0,0,1,.57-.24.77.77,0,0,1,.58.24.93.93,0,0,1,.27.67Z"/><path d="M94.64,67v.19a2.8,2.8,0,0,1,.92-.82,2.46,2.46,0,0,1,1.15-.26,2.3,2.3,0,0,1,1.13.28,1.75,1.75,0,0,1,.74.78,1.85,1.85,0,0,1,.21.63,6.56,6.56,0,0,1,0,.87v3a1.06,1.06,0,0,1-.22.73.73.73,0,0,1-.57.25.74.74,0,0,1-.58-.25,1,1,0,0,1-.22-.72V69A2.66,2.66,0,0,0,97,67.78a.89.89,0,0,0-.88-.42,1.3,1.3,0,0,0-.78.25,1.46,1.46,0,0,0-.52.7,5,5,0,0,0-.12,1.34v2a1,1,0,0,1-.23.73.76.76,0,0,1-.58.24.72.72,0,0,1-.57-.25,1,1,0,0,1-.22-.72V67a1,1,0,0,1,.2-.68.69.69,0,0,1,.54-.23.74.74,0,0,1,.38.1.71.71,0,0,1,.27.3A1,1,0,0,1,94.64,67Z"/><path d="M100.31,66.27h.39v-.52a3.07,3.07,0,0,1,.19-1.19,1.21,1.21,0,0,1,.64-.64c.4-.15.82,1.78,1.25,1.8.93,0,1.4-1.77,1.4-1.31a.54.54,0,0,1-.15.38.46.46,0,0,1-.35.16H103a.57.57,0,0,0-.56.25,1.72,1.72,0,0,0-.12.73v.38h.41q.91,0,.91.55,0,.39-.24.5a1.73,1.73,0,0,1-.67.11h-.39v4.24a1,1,0,0,1-.23.72.75.75,0,0,1-.58.25.73.73,0,0,1-.57-.25,1,1,0,0,1-.23-.72V67.42h-.44a.84.84,0,0,1-.55-.16.52.52,0,0,1-.19-.42Q99.5,66.27,100.31,66.27Z"/><path d="M105.39,65.38a.84.84,0,0,1-.57-.21.8.8,0,0,1,0-1.13h0a.82.82,0,0,1,.57-.22.84.84,0,0,1,.55.2.71.71,0,0,1,.24.58.73.73,0,0,1-.23.58A.81.81,0,0,1,105.39,65.38Zm.79,1.65v4.62a1,1,0,0,1-.23.73.76.76,0,0,1-.58.25.72.72,0,0,1-.57-.25,1.06,1.06,0,0,1-.22-.72V67.08a1,1,0,0,1,.22-.71.74.74,0,0,1,.57-.24.77.77,0,0,1,.58.24.93.93,0,0,1,.23.67Z"/><path d="M109.28,67v.19a2.8,2.8,0,0,1,.92-.82,2.46,2.46,0,0,1,1.15-.26,2.3,2.3,0,0,1,1.13.28,1.75,1.75,0,0,1,.74.78,1.85,1.85,0,0,1,.21.63,6.56,6.56,0,0,1,0,.87v3a1.06,1.06,0,0,1-.22.73.73.73,0,0,1-.57.25.74.74,0,0,1-.58-.25,1,1,0,0,1-.22-.72V69a2.66,2.66,0,0,0-.14-1.24.89.89,0,0,0-.88-.42,1.3,1.3,0,0,0-.78.25,1.46,1.46,0,0,0-.52.7,5,5,0,0,0-.12,1.34v2a1,1,0,0,1-.23.73.76.76,0,0,1-.58.24.72.72,0,0,1-.57-.25,1,1,0,0,1-.22-.72V67a1,1,0,0,1,.2-.68.69.69,0,0,1,.54-.23.74.74,0,0,1,.38.1.71.71,0,0,1,.27.3A1,1,0,0,1,109.28,67Z"/><path d="M115.89,65.38a.84.84,0,0,1-.57-.21.8.8,0,0,1,0-1.13h0a.82.82,0,0,1,.57-.22.84.84,0,0,1,.55.2.71.71,0,0,1,.24.58.73.73,0,0,1-.23.58A.81.81,0,0,1,115.89,65.38Zm.79,1.65v4.62a1,1,0,0,1-.23.73.76.76,0,0,1-.58.25.72.72,0,0,1-.57-.25,1.06,1.06,0,0,1-.22-.72V67.08a1,1,0,0,1,.22-.71.74.74,0,0,1,.57-.24.77.77,0,0,1,.58.24.93.93,0,0,1,.25.67Z"/><path d="M118.42,66.27h.18V64.66a.9.9,0,0,1,.11-.38A.72.72,0,0,1,119,64a.76.76,0,0,1,.39-.1.79.79,0,0,1,.55.23.68.68,0,0,1,.21.37,3.38,3.38,0,0,1,0,.62v1.09h.59a.75.75,0,0,1,.52.16.53.53,0,0,1,.18.41.46.46,0,0,1-.25.45,1.65,1.65,0,0,1-.73.13h-.3v2.94a4.77,4.77,0,0,0,0,.58.59.59,0,0,0,.14.33.48.48,0,0,0,.37.13,2,2,0,0,0,.38,0,2,2,0,0,1,.38,0,.48.48,0,0,1,.35.16.52.52,0,0,1,.16.38.64.64,0,0,1-.42.59,2.85,2.85,0,0,1-1.21.21,2.1,2.1,0,0,1-1.14-.25,1.17,1.17,0,0,1-.51-.7,4.73,4.73,0,0,1-.12-1.19V67.42h-.21a.76.76,0,0,1-.53-.16.54.54,0,0,1-.18-.42.52.52,0,0,1,.19-.41A.84.84,0,0,1,118.42,66.27Z"/><path d="M124.05,72.83l.15-.36-2-5a1.86,1.86,0,0,1-.18-.62.73.73,0,0,1,.11-.38.79.79,0,0,1,.29-.28.76.76,0,0,1,.38-.11.63.63,0,0,1,.52.22,2,2,0,0,1,.31.63L125,70.87l1.28-3.66a6.32,6.32,0,0,1,.28-.7.82.82,0,0,1,.26-.34.72.72,0,0,1,.39-.09.69.69,0,0,1,.35.1.67.67,0,0,1,.26.26.7.7,0,0,1,.09.35l-.08.32a3.38,3.38,0,0,1-.13.42L125.59,73a6.38,6.38,0,0,1-.53,1.13,1.74,1.74,0,0,1-.68.63,2.51,2.51,0,0,1-1.15.22,2.78,2.78,0,0,1-1.05-.15.56.56,0,0,1-.35-.56.54.54,0,0,1,.17-.42.72.72,0,0,1,.5-.15.91.91,0,0,1,.25,0H123a1,1,0,0,0,.43-.08.76.76,0,0,0,.28-.28A4.36,4.36,0,0,0,124.05,72.83Z"/></g></g></g></g></g></svg>