<svg xmlns="http://www.w3.org/2000/svg" viewBox="0 0 153 80"><defs><style>.cls-1,.cls-2{fill:#fff;}.cls-1{fill-rule:evenodd;}</style></defs><title>Float logo</title><g id="Layer_2" data-name="Layer 2"><g id="Group_3_copy" data-name="Group 3 copy"><g id="Group_4" data-name="Group 4"><g id="Ellipse_1" data-name="Ellipse 1"><ellipse cx="45" cy="40" rx="45" ry="40"/></g><g id="Ellipse_1_copy_2" data-name="Ellipse 1 copy 2"><ellipse cx="108" cy="40" rx="45" ry="40"/></g><g id="Vector_Smart_Object_Image" data-name="Vector Smart Object Image"><path class="cls-1" d="M63,40c0,11.19,5.17,21.3,13.5,28.56C84.83,61.3,90,51.19,90,40S84.83,18.7,76.5,11.44C68.17,18.7,63,28.81,63,40Z"/></g><g id="Group_5" data-name="Group 5"><g id="f"><path class="cls-2" d="M22.08,32.32h1.11v-1.4a9,9,0,0,1,.56-3.48,3.53,3.53,0,0,1,1.88-1.88A9.13,9.13,0,0,1,29.25,25q4.08,0,4.08,2a1.58,1.58,0,0,1-.43,1.11,1.33,1.33,0,0,1-1,.46,7.2,7.2,0,0,1-.94-.1,7.62,7.62,0,0,0-1.13-.1q-1.26,0-1.62.74a5,5,0,0,0-.36,2.13v1.11H29q2.67,0,2.67,1.61,0,1.15-.71,1.45a5,5,0,0,1-2,.31H27.85V48a3,3,0,0,1-.66,2.11,2.19,2.19,0,0,1-1.7.73,2.13,2.13,0,0,1-1.65-.73A3,3,0,0,1,23.19,48V35.69H21.91a2.44,2.44,0,0,1-1.61-.47A1.52,1.52,0,0,1,19.74,34Q19.74,32.32,22.08,32.32Z"/></g><g id="o"><path d="M86.13,41.4a11,11,0,0,1-.65,3.84,8.5,8.5,0,0,1-1.88,3,8.29,8.29,0,0,1-2.94,1.94,10.39,10.39,0,0,1-3.85.68A10.11,10.11,0,0,1,73,50.2a8.41,8.41,0,0,1-4.81-5,11,11,0,0,1-.64-3.84,11.13,11.13,0,0,1,.65-3.88,8.44,8.44,0,0,1,1.86-3A8.21,8.21,0,0,1,73,32.59a11.12,11.12,0,0,1,7.66,0,8.27,8.27,0,0,1,4.83,5A11.06,11.06,0,0,1,86.13,41.4Zm-4.68,0A7,7,0,0,0,80.2,37a4.08,4.08,0,0,0-3.38-1.59,4.18,4.18,0,0,0-2.41.71,4.49,4.49,0,0,0-1.61,2.09,9.5,9.5,0,0,0,0,6.43,4.58,4.58,0,0,0,1.59,2.09,4.13,4.13,0,0,0,2.44.73,4.07,4.07,0,0,0,3.38-1.6A7,7,0,0,0,81.45,41.4Z"/></g><g id="t"><path class="cls-2" d="M121.3,32.32h.51v-2.8q0-1.13.06-1.77a2.61,2.61,0,0,1,.33-1.1,2.1,2.1,0,0,1,.79-.78,2.23,2.23,0,0,1,1.14-.3,2.3,2.3,0,0,1,1.61.67,2,2,0,0,1,.61,1.09,9.9,9.9,0,0,1,.13,1.82v3.18h1.71a2.19,2.19,0,0,1,1.51.47,1.55,1.55,0,0,1,.52,1.2,1.35,1.35,0,0,1-.74,1.32,4.82,4.82,0,0,1-2.13.38h-.87v8.58a13.82,13.82,0,0,0,.08,1.68,1.71,1.71,0,0,0,.41,1,1.4,1.4,0,0,0,1.08.37,5.73,5.73,0,0,0,1.11-.15,5.77,5.77,0,0,1,1.09-.14,1.41,1.41,0,0,1,1,.45,1.53,1.53,0,0,1,.45,1.12,1.87,1.87,0,0,1-1.23,1.73,8.32,8.32,0,0,1-3.54.6,6.12,6.12,0,0,1-3.32-.74,3.41,3.41,0,0,1-1.48-2,13.79,13.79,0,0,1-.35-3.47v-9h-.62a2.22,2.22,0,0,1-1.54-.48,1.56,1.56,0,0,1-.53-1.21,1.51,1.51,0,0,1,.55-1.2A2.44,2.44,0,0,1,121.3,32.32Z"/></g><g id="l"><path class="cls-2" d="M48.5,48V27.81a3.15,3.15,0,0,1,.62-2.12A2.12,2.12,0,0,1,50.8,25a2.21,2.21,0,0,1,1.71.71,3.06,3.06,0,0,1,.65,2.13V48a3,3,0,0,1-.66,2.13,2.22,2.22,0,0,1-1.7.71,2.11,2.11,0,0,1-1.67-.74A3.1,3.1,0,0,1,48.5,48Z"/></g><g id="a"><path class="cls-2" d="M107.63,48.25a14.43,14.43,0,0,1-3.27,2,9.15,9.15,0,0,1-3.55.66,6.72,6.72,0,0,1-3.15-.71,5.18,5.18,0,0,1-2.09-1.92,5,5,0,0,1-.74-2.63A4.71,4.71,0,0,1,96,42.35a6.07,6.07,0,0,1,3.33-1.81l2.21-.46q1.76-.36,3-.66t2.73-.73a4.88,4.88,0,0,0-.74-2.71q-.66-.86-2.73-.86a5.68,5.68,0,0,0-2.67.5,4.35,4.35,0,0,0-1.54,1.49,15.54,15.54,0,0,1-.91,1.31,1.48,1.48,0,0,1-1.14.32,2,2,0,0,1-1.36-.5,1.64,1.64,0,0,1-.57-1.29,4,4,0,0,1,.87-2.39,6.24,6.24,0,0,1,2.72-1.91,12.25,12.25,0,0,1,4.6-.75,13,13,0,0,1,4.84.73,4.5,4.5,0,0,1,2.49,2.3,10.05,10.05,0,0,1,.73,4.17q0,1.64,0,2.79t0,2.55a9.36,9.36,0,0,0,.44,2.74,8.62,8.62,0,0,1,.44,1.84,1.72,1.72,0,0,1-.67,1.31,2.27,2.27,0,0,1-1.53.59,2.06,2.06,0,0,1-1.42-.68A10,10,0,0,1,107.63,48.25Zm-.31-6.75a23.45,23.45,0,0,1-3,.79q-2,.42-2.71.62a3.7,3.7,0,0,0-1.44.77,2,2,0,0,0-.68,1.6,2.37,2.37,0,0,0,.8,1.8,3,3,0,0,0,2.1.74,5.47,5.47,0,0,0,2.55-.61,4,4,0,0,0,1.72-1.56,7.14,7.14,0,0,0,.63-3.49Z"/></g></g></g></g></g></svg>