<svg xmlns="http://www.w3.org/2000/svg" viewBox="0 0 153 101.26"><defs><style>.cls-1,.cls-2{fill:#fff;}.cls-1{fill-rule:evenodd;}</style></defs><title>float with slogan_1</title><g id="Layer_2" data-name="Layer 2"><g id="Group_3_copy" data-name="Group 3 copy"><g id="Group_4" data-name="Group 4"><g id="Ellipse_1" data-name="Ellipse 1"><ellipse cx="45" cy="40" rx="45" ry="40"/></g><g id="Ellipse_1_copy_2" data-name="Ellipse 1 copy 2"><ellipse cx="108" cy="40" rx="45" ry="40"/></g><g id="Vector_Smart_Object_Image" data-name="Vector Smart Object Image"><path class="cls-1" d="M63,40c0,11.19,5.17,21.3,13.5,28.56C84.83,61.3,90,51.19,90,40S84.83,18.7,76.5,11.44C68.17,18.7,63,28.81,63,40Z"/></g><g id="Group_5" data-name="Group 5"><g id="f"><path class="cls-2" d="M22.08,32.32h1.11v-1.4a9,9,0,0,1,.56-3.48,3.53,3.53,0,0,1,1.88-1.88A9.13,9.13,0,0,1,29.25,25q4.08,0,4.08,2a1.58,1.58,0,0,1-.43,1.11,1.33,1.33,0,0,1-1,.46,7.2,7.2,0,0,1-.94-.1,7.62,7.62,0,0,0-1.13-.1q-1.26,0-1.62.74a5,5,0,0,0-.36,2.13v1.11H29q2.67,0,2.67,1.61,0,1.15-.71,1.45a5,5,0,0,1-2,.31H27.85V48a3,3,0,0,1-.66,2.11,2.19,2.19,0,0,1-1.7.73,2.13,2.13,0,0,1-1.65-.73A3,3,0,0,1,23.19,48V35.69H21.91a2.44,2.44,0,0,1-1.61-.47A1.52,1.52,0,0,1,19.74,34Q19.74,32.32,22.08,32.32Z"/></g><g id="o"><path d="M86.13,41.4a11,11,0,0,1-.65,3.84,8.5,8.5,0,0,1-1.88,3,8.29,8.29,0,0,1-2.94,1.94,10.39,10.39,0,0,1-3.85.68A10.11,10.11,0,0,1,73,50.2a8.41,8.41,0,0,1-4.81-5,11,11,0,0,1-.64-3.84,11.13,11.13,0,0,1,.65-3.88,8.44,8.44,0,0,1,1.86-3A8.21,8.21,0,0,1,73,32.59a11.12,11.12,0,0,1,7.66,0,8.27,8.27,0,0,1,4.83,5A11.06,11.06,0,0,1,86.13,41.4Zm-4.68,0A7,7,0,0,0,80.2,37a4.08,4.08,0,0,0-3.38-1.59,4.18,4.18,0,0,0-2.41.71,4.49,4.49,0,0,0-1.61,2.09,9.5,9.5,0,0,0,0,6.43,4.58,4.58,0,0,0,1.59,2.09,4.13,4.13,0,0,0,2.44.73,4.07,4.07,0,0,0,3.38-1.6A7,7,0,0,0,81.45,41.4Z"/></g><g id="t"><path class="cls-2" d="M121.3,32.32h.51v-2.8q0-1.13.06-1.77a2.61,2.61,0,0,1,.33-1.1,2.1,2.1,0,0,1,.79-.78,2.23,2.23,0,0,1,1.14-.3,2.3,2.3,0,0,1,1.61.67,2,2,0,0,1,.61,1.09,9.9,9.9,0,0,1,.13,1.82v3.18h1.71a2.19,2.19,0,0,1,1.51.47,1.55,1.55,0,0,1,.52,1.2,1.35,1.35,0,0,1-.74,1.32,4.82,4.82,0,0,1-2.13.38h-.87v8.58a13.82,13.82,0,0,0,.08,1.68,1.71,1.71,0,0,0,.41,1,1.4,1.4,0,0,0,1.08.37,5.73,5.73,0,0,0,1.11-.15,5.77,5.77,0,0,1,1.09-.14,1.41,1.41,0,0,1,1,.45,1.53,1.53,0,0,1,.45,1.12,1.87,1.87,0,0,1-1.23,1.73,8.32,8.32,0,0,1-3.54.6,6.12,6.12,0,0,1-3.32-.74,3.41,3.41,0,0,1-1.48-2,13.79,13.79,0,0,1-.35-3.47v-9h-.62a2.22,2.22,0,0,1-1.54-.48,1.56,1.56,0,0,1-.53-1.21,1.51,1.51,0,0,1,.55-1.2A2.44,2.44,0,0,1,121.3,32.32Z"/></g><g id="l"><path class="cls-2" d="M48.5,48V27.81a3.15,3.15,0,0,1,.62-2.12A2.12,2.12,0,0,1,50.8,25a2.21,2.21,0,0,1,1.71.71,3.06,3.06,0,0,1,.65,2.13V48a3,3,0,0,1-.66,2.13,2.22,2.22,0,0,1-1.7.71,2.11,2.11,0,0,1-1.67-.74A3.1,3.1,0,0,1,48.5,48Z"/></g><g id="a"><path class="cls-2" d="M107.63,48.25a14.43,14.43,0,0,1-3.27,2,9.15,9.15,0,0,1-3.55.66,6.72,6.72,0,0,1-3.15-.71,5.18,5.18,0,0,1-2.09-1.92,5,5,0,0,1-.74-2.63A4.71,4.71,0,0,1,96,42.35a6.07,6.07,0,0,1,3.33-1.81l2.21-.46q1.76-.36,3-.66t2.73-.73a4.88,4.88,0,0,0-.74-2.71q-.66-.86-2.73-.86a5.68,5.68,0,0,0-2.67.5,4.35,4.35,0,0,0-1.54,1.49,15.54,15.54,0,0,1-.91,1.31,1.48,1.48,0,0,1-1.14.32,2,2,0,0,1-1.36-.5,1.64,1.64,0,0,1-.57-1.29,4,4,0,0,1,.87-2.39,6.24,6.24,0,0,1,2.72-1.91,12.25,12.25,0,0,1,4.6-.75,13,13,0,0,1,4.84.73,4.5,4.5,0,0,1,2.49,2.3,10.05,10.05,0,0,1,.73,4.17q0,1.64,0,2.79t0,2.55a9.36,9.36,0,0,0,.44,2.74,8.62,8.62,0,0,1,.44,1.84,1.72,1.72,0,0,1-.67,1.31,2.27,2.27,0,0,1-1.53.59,2.06,2.06,0,0,1-1.42-.68A10,10,0,0,1,107.63,48.25Zm-.31-6.75a23.45,23.45,0,0,1-3,.79q-2,.42-2.71.62a3.7,3.7,0,0,0-1.44.77,2,2,0,0,0-.68,1.6,2.37,2.37,0,0,0,.8,1.8,3,3,0,0,0,2.1.74,5.47,5.47,0,0,0,2.55-.61,4,4,0,0,0,1.72-1.56,7.14,7.14,0,0,0,.63-3.49Z"/></g></g><path d="M17.07,96H13.94a2.12,2.12,0,0,0,.22,1,1.47,1.47,0,0,0,1.35.84,1.92,1.92,0,0,0,.52-.07,1.71,1.71,0,0,0,.46-.21,3.51,3.51,0,0,0,.41-.31l.49-.45a.52.52,0,0,1,.35-.11.58.58,0,0,1,.4.13.48.48,0,0,1,.15.38,1,1,0,0,1-.17.51,2,2,0,0,1-.51.56,2.92,2.92,0,0,1-.86.44,3.71,3.71,0,0,1-1.19.18,3.19,3.19,0,0,1-2.4-.88,3.27,3.27,0,0,1-.86-2.38,4,4,0,0,1,.21-1.32,2.9,2.9,0,0,1,.62-1,2.67,2.67,0,0,1,1-.67,3.58,3.58,0,0,1,1.31-.23,3.11,3.11,0,0,1,1.61.4,2.6,2.6,0,0,1,1,1,2.69,2.69,0,0,1,.33,1.28q0,.6-.35.78A2.15,2.15,0,0,1,17.07,96Zm-3.13-.91h2.9a1.94,1.94,0,0,0-.44-1.23,1.32,1.32,0,0,0-1-.41,1.28,1.28,0,0,0-1,.41A2.05,2.05,0,0,0,13.94,95.12Z"/><path d="M23,98.22l-1.16-1.71L20.7,98.22a3,3,0,0,1-.44.51.68.68,0,0,1-.45.15.75.75,0,0,1-.52-.19.57.57,0,0,1-.21-.44,1.46,1.46,0,0,1,.33-.72l1.45-2.07-1.28-1.73a1.29,1.29,0,0,1-.33-.74.56.56,0,0,1,.2-.43.74.74,0,0,1,.52-.18.69.69,0,0,1,.47.16,3,3,0,0,1,.43.5l1,1.42,1-1.42a2.75,2.75,0,0,1,.44-.5.7.7,0,0,1,.46-.15.78.78,0,0,1,.52.18.55.55,0,0,1,.21.43.76.76,0,0,1-.08.35,2.65,2.65,0,0,1-.26.4l-1.28,1.73,1.45,2.07a1.52,1.52,0,0,1,.34.73.55.55,0,0,1-.21.43.77.77,0,0,1-.52.18.7.7,0,0,1-.47-.16A2.72,2.72,0,0,1,23,98.22Z"/><path d="M27.31,93.28v.19a3.16,3.16,0,0,1,.94-.82,2.29,2.29,0,0,1,1.1-.26,2.55,2.55,0,0,1,1.36.38,2.62,2.62,0,0,1,1,1.11A3.89,3.89,0,0,1,32,95.62,4.23,4.23,0,0,1,31.84,97a3,3,0,0,1-.57,1,2.49,2.49,0,0,1-.86.64,2.53,2.53,0,0,1-1.06.23,2.23,2.23,0,0,1-1.15-.28,3.29,3.29,0,0,1-.89-.81v2.4q0,1.05-.77,1.05a.62.62,0,0,1-.6-.27,1.72,1.72,0,0,1-.15-.79v-6.9a1,1,0,0,1,.2-.68.69.69,0,0,1,.54-.23.72.72,0,0,1,.55.23A1,1,0,0,1,27.31,93.28Zm3.13,2.33a2.77,2.77,0,0,0-.19-1.09,1.59,1.59,0,0,0-.54-.7,1.28,1.28,0,0,0-.76-.24,1.42,1.42,0,0,0-1.12.52,2.28,2.28,0,0,0-.45,1.54,2.22,2.22,0,0,0,.45,1.49,1.41,1.41,0,0,0,1.12.53,1.29,1.29,0,0,0,.74-.23,1.59,1.59,0,0,0,.54-.69A2.75,2.75,0,0,0,30.44,95.6Z"/><path d="M37.79,96H34.66a2.12,2.12,0,0,0,.22,1,1.47,1.47,0,0,0,1.35.84,1.92,1.92,0,0,0,.52-.07,1.71,1.71,0,0,0,.46-.21,3.51,3.51,0,0,0,.41-.31l.49-.45a.52.52,0,0,1,.35-.11.58.58,0,0,1,.4.13.48.48,0,0,1,.15.38,1,1,0,0,1-.17.51,2,2,0,0,1-.51.56,2.92,2.92,0,0,1-.86.44,3.71,3.71,0,0,1-1.19.18,3.19,3.19,0,0,1-2.4-.88A3.27,3.27,0,0,1,33,95.62a4,4,0,0,1,.21-1.32,2.9,2.9,0,0,1,.62-1,2.67,2.67,0,0,1,1-.67,3.58,3.58,0,0,1,1.31-.23,3.11,3.11,0,0,1,1.61.4,2.6,2.6,0,0,1,1,1,2.69,2.69,0,0,1,.33,1.28q0,.6-.35.78A2.15,2.15,0,0,1,37.79,96Zm-3.13-.91h2.9a1.94,1.94,0,0,0-.44-1.23,1.32,1.32,0,0,0-1-.41,1.28,1.28,0,0,0-1,.41A2.05,2.05,0,0,0,34.66,95.12Z"/><path d="M42,96.57v1.34a1,1,0,0,1-.23.73.76.76,0,0,1-.58.24.73.73,0,0,1-.57-.25,1.05,1.05,0,0,1-.22-.73V93.46q0-1.08.78-1.08a.65.65,0,0,1,.57.25,1.39,1.39,0,0,1,.19.74,2.8,2.8,0,0,1,.59-.74,1.22,1.22,0,0,1,.81-.25,2.06,2.06,0,0,1,1,.25.75.75,0,0,1,.47.67.64.64,0,0,1-.2.48.63.63,0,0,1-.44.19,2,2,0,0,1-.42-.11,2,2,0,0,0-.59-.11.87.87,0,0,0-.57.18,1.18,1.18,0,0,0-.35.55,3.82,3.82,0,0,0-.17.86Q42,95.85,42,96.57Z"/><path d="M46.52,91.63a.84.84,0,0,1-.57-.21.8.8,0,0,1,0-1.14.82.82,0,0,1,.57-.22.84.84,0,0,1,.55.2.71.71,0,0,1,.24.58.73.73,0,0,1-.23.58A.81.81,0,0,1,46.52,91.63Zm.79,1.65v4.62a1,1,0,0,1-.23.73.76.76,0,0,1-.58.25.72.72,0,0,1-.57-.25,1.06,1.06,0,0,1-.22-.72V93.33a1,1,0,0,1,.22-.71.74.74,0,0,1,.57-.24.77.77,0,0,1,.58.24A.93.93,0,0,1,47.31,93.29Z"/><path d="M53.43,96H50.3a2.12,2.12,0,0,0,.22,1,1.47,1.47,0,0,0,1.35.84,1.92,1.92,0,0,0,.52-.07,1.71,1.71,0,0,0,.46-.21,3.51,3.51,0,0,0,.41-.31l.49-.45a.52.52,0,0,1,.35-.11.58.58,0,0,1,.4.13.48.48,0,0,1,.15.38,1,1,0,0,1-.17.51,2,2,0,0,1-.51.56,2.92,2.92,0,0,1-.86.44,3.71,3.71,0,0,1-1.19.18,3.19,3.19,0,0,1-2.4-.88,3.27,3.27,0,0,1-.86-2.38,4,4,0,0,1,.21-1.32,2.9,2.9,0,0,1,.62-1,2.67,2.67,0,0,1,1-.67,3.58,3.58,0,0,1,1.31-.23,3.11,3.11,0,0,1,1.61.4,2.6,2.6,0,0,1,1,1,2.69,2.69,0,0,1,.33,1.28q0,.6-.35.78A2.15,2.15,0,0,1,53.43,96Zm-3.13-.91h2.9a1.94,1.94,0,0,0-.44-1.23,1.32,1.32,0,0,0-1-.41,1.28,1.28,0,0,0-1,.41A2.05,2.05,0,0,0,50.3,95.12Z"/><path d="M57.55,93.26v.19a2.8,2.8,0,0,1,.92-.82,2.46,2.46,0,0,1,1.15-.26,2.3,2.3,0,0,1,1.13.28,1.75,1.75,0,0,1,.74.78,1.85,1.85,0,0,1,.21.63,6.56,6.56,0,0,1,0,.87v3a1.06,1.06,0,0,1-.22.73.73.73,0,0,1-.57.25.74.74,0,0,1-.58-.25,1.05,1.05,0,0,1-.22-.72V95.24A2.66,2.66,0,0,0,59.94,94a.89.89,0,0,0-.88-.42,1.3,1.3,0,0,0-.78.25,1.46,1.46,0,0,0-.52.7,5,5,0,0,0-.12,1.34v2a1,1,0,0,1-.23.73.76.76,0,0,1-.58.24.72.72,0,0,1-.57-.25,1.05,1.05,0,0,1-.22-.72V93.29a1,1,0,0,1,.2-.68.69.69,0,0,1,.54-.23.74.74,0,0,1,.38.1.71.71,0,0,1,.27.3A1.05,1.05,0,0,1,57.55,93.26Z"/><path d="M69.08,96.9a1.38,1.38,0,0,1-.18.64,2.19,2.19,0,0,1-.54.65,2.82,2.82,0,0,1-.92.5,3.92,3.92,0,0,1-1.25.19A3.06,3.06,0,0,1,63.87,98,3.2,3.2,0,0,1,63,95.69a3.82,3.82,0,0,1,.38-1.74,2.73,2.73,0,0,1,1.1-1.17,3.75,3.75,0,0,1,2.86-.23,3,3,0,0,1,.88.47,2.25,2.25,0,0,1,.55.61,1.21,1.21,0,0,1,.19.61.64.64,0,0,1-.21.49.73.73,0,0,1-.52.2.52.52,0,0,1-.33-.1,1.62,1.62,0,0,1-.3-.33,2.42,2.42,0,0,0-.61-.67,1.5,1.5,0,0,0-2,.33,2.4,2.4,0,0,0-.43,1.51,2.93,2.93,0,0,0,.11.83,1.88,1.88,0,0,0,.32.64,1.38,1.38,0,0,0,.51.4,1.55,1.55,0,0,0,.66.14,1.48,1.48,0,0,0,.82-.22,2,2,0,0,0,.61-.68,1.56,1.56,0,0,1,.32-.42.6.6,0,0,1,.42-.15.62.62,0,0,1,.49.22A.71.71,0,0,1,69.08,96.9Z"/><path d="M74.94,96H71.81A2.12,2.12,0,0,0,72,97a1.47,1.47,0,0,0,1.35.84,1.92,1.92,0,0,0,.52-.07,1.71,1.71,0,0,0,.46-.21,3.51,3.51,0,0,0,.41-.31l.49-.45a.52.52,0,0,1,.35-.11.58.58,0,0,1,.4.13.48.48,0,0,1,.15.38,1,1,0,0,1-.17.51,2,2,0,0,1-.51.56,2.92,2.92,0,0,1-.86.44,3.71,3.71,0,0,1-1.19.18A3.19,3.19,0,0,1,71,98a3.27,3.27,0,0,1-.86-2.38,4,4,0,0,1,.21-1.32,2.9,2.9,0,0,1,.62-1,2.67,2.67,0,0,1,1-.67,3.58,3.58,0,0,1,1.31-.23,3.11,3.11,0,0,1,1.61.4,2.6,2.6,0,0,1,1,1,2.69,2.69,0,0,1,.33,1.28q0,.6-.35.78A2.15,2.15,0,0,1,74.94,96Zm-3.13-.91h2.9a1.94,1.94,0,0,0-.44-1.23,1.32,1.32,0,0,0-1-.41,1.28,1.28,0,0,0-1,.41A2.05,2.05,0,0,0,71.81,95.12Z"/><path d="M80.7,92.52h.18v-1q0-.39,0-.61a.9.9,0,0,1,.11-.38.72.72,0,0,1,.27-.27.76.76,0,0,1,.39-.1.79.79,0,0,1,.55.23.68.68,0,0,1,.21.37,3.38,3.38,0,0,1,0,.62v1.09h.59a.75.75,0,0,1,.52.16.53.53,0,0,1,.18.41.46.46,0,0,1-.25.45,1.65,1.65,0,0,1-.73.13h-.3v2.94a4.77,4.77,0,0,0,0,.58.59.59,0,0,0,.14.33.48.48,0,0,0,.37.13,2,2,0,0,0,.38,0,2,2,0,0,1,.38,0,.48.48,0,0,1,.35.16.52.52,0,0,1,.16.38.64.64,0,0,1-.42.59,2.85,2.85,0,0,1-1.21.21,2.1,2.1,0,0,1-1.14-.25,1.17,1.17,0,0,1-.51-.7,4.73,4.73,0,0,1-.12-1.19V93.67h-.21a.76.76,0,0,1-.53-.16.54.54,0,0,1-.18-.42.52.52,0,0,1,.19-.41A.84.84,0,0,1,80.7,92.52Z"/><path d="M86.42,91v2.37a3.42,3.42,0,0,1,.59-.56,2.14,2.14,0,0,1,.64-.31,2.69,2.69,0,0,1,.76-.1,2.22,2.22,0,0,1,1.08.26,2,2,0,0,1,1,1.39,5.06,5.06,0,0,1,.06.82v3.06a1.06,1.06,0,0,1-.22.73.74.74,0,0,1-.58.25q-.79,0-.79-1v-2.7A2.48,2.48,0,0,0,88.7,94a.9.9,0,0,0-.87-.41,1.3,1.3,0,0,0-.77.24,1.46,1.46,0,0,0-.51.67,4.26,4.26,0,0,0-.13,1.27v2.12a1.08,1.08,0,0,1-.21.72.74.74,0,0,1-.59.25q-.79,0-.79-1V91a1.1,1.1,0,0,1,.21-.73.73.73,0,0,1,.58-.24.75.75,0,0,1,.59.25A1.08,1.08,0,0,1,86.42,91Z"/><path d="M96.57,96H93.44a2.12,2.12,0,0,0,.22,1,1.47,1.47,0,0,0,1.35.84,1.92,1.92,0,0,0,.52-.07,1.71,1.71,0,0,0,.46-.21,3.51,3.51,0,0,0,.41-.31l.49-.45a.52.52,0,0,1,.35-.11.58.58,0,0,1,.4.13.48.48,0,0,1,.15.38,1,1,0,0,1-.17.51,2,2,0,0,1-.51.56,2.92,2.92,0,0,1-.86.44,3.71,3.71,0,0,1-1.19.18,3.19,3.19,0,0,1-2.4-.88,3.27,3.27,0,0,1-.86-2.38A4,4,0,0,1,92,94.3a2.9,2.9,0,0,1,.62-1,2.67,2.67,0,0,1,1-.67,3.58,3.58,0,0,1,1.31-.23,3.11,3.11,0,0,1,1.61.4,2.6,2.6,0,0,1,1,1,2.69,2.69,0,0,1,.33,1.28q0,.6-.35.78A2.15,2.15,0,0,1,96.57,96Zm-3.13-.91h2.9a1.94,1.94,0,0,0-.44-1.23,1.32,1.32,0,0,0-1-.41,1.28,1.28,0,0,0-1,.41A2.05,2.05,0,0,0,93.44,95.12Z"/><path d="M103,91.63a.84.84,0,0,1-.57-.21.8.8,0,0,1,0-1.14.82.82,0,0,1,.57-.22.84.84,0,0,1,.55.2.71.71,0,0,1,.24.58.73.73,0,0,1-.23.58A.81.81,0,0,1,103,91.63Zm.79,1.65v4.62a1,1,0,0,1-.23.73.76.76,0,0,1-.58.25.72.72,0,0,1-.57-.25,1.06,1.06,0,0,1-.22-.72V93.33a1,1,0,0,1,.22-.71.74.74,0,0,1,.57-.24.77.77,0,0,1,.58.24A.93.93,0,0,1,103.83,93.29Z"/><path d="M106.94,93.26v.19a2.8,2.8,0,0,1,.92-.82,2.46,2.46,0,0,1,1.15-.26,2.3,2.3,0,0,1,1.13.28,1.75,1.75,0,0,1,.74.78,1.85,1.85,0,0,1,.21.63,6.56,6.56,0,0,1,0,.87v3a1.06,1.06,0,0,1-.22.73.73.73,0,0,1-.57.25.74.74,0,0,1-.58-.25,1.05,1.05,0,0,1-.22-.72V95.24a2.66,2.66,0,0,0-.22-1.21.89.89,0,0,0-.88-.42,1.3,1.3,0,0,0-.78.25,1.46,1.46,0,0,0-.52.7,5,5,0,0,0-.12,1.34v2a1,1,0,0,1-.23.73.76.76,0,0,1-.58.24.72.72,0,0,1-.57-.25,1.05,1.05,0,0,1-.22-.72V93.29a1,1,0,0,1,.2-.68.69.69,0,0,1,.54-.23.74.74,0,0,1,.38.1.71.71,0,0,1,.27.3A1.05,1.05,0,0,1,106.94,93.26Z"/><path d="M112.61,92.52H113V92a3.07,3.07,0,0,1,.19-1.19,1.21,1.21,0,0,1,.64-.64,3.13,3.13,0,0,1,1.25-.2q1.4,0,1.4.69a.54.54,0,0,1-.15.38.46.46,0,0,1-.35.16l-.32,0-.39,0q-.43,0-.56.25a1.72,1.72,0,0,0-.12.73v.38H115q.91,0,.91.55,0,.39-.24.5a1.73,1.73,0,0,1-.67.11h-.39v4.24a1,1,0,0,1-.23.72.75.75,0,0,1-.58.25.73.73,0,0,1-.57-.25,1,1,0,0,1-.23-.72V93.67h-.44a.84.84,0,0,1-.55-.16.52.52,0,0,1-.19-.42Q111.8,92.52,112.61,92.52Z"/><path d="M117.69,91.63a.84.84,0,0,1-.57-.21.8.8,0,0,1,0-1.14.82.82,0,0,1,.57-.22.84.84,0,0,1,.55.2.71.71,0,0,1,.24.58.73.73,0,0,1-.23.58A.81.81,0,0,1,117.69,91.63Zm.79,1.65v4.62a1,1,0,0,1-.23.73.76.76,0,0,1-.58.25.72.72,0,0,1-.57-.25,1.06,1.06,0,0,1-.22-.72V93.33a1,1,0,0,1,.22-.71.74.74,0,0,1,.57-.24.77.77,0,0,1,.58.24A.93.93,0,0,1,118.48,93.29Z"/><path d="M121.58,93.26v.19a2.8,2.8,0,0,1,.92-.82,2.46,2.46,0,0,1,1.15-.26,2.3,2.3,0,0,1,1.13.28,1.75,1.75,0,0,1,.74.78,1.85,1.85,0,0,1,.21.63,6.56,6.56,0,0,1,0,.87v3a1.06,1.06,0,0,1-.22.73.73.73,0,0,1-.57.25.74.74,0,0,1-.58-.25,1.05,1.05,0,0,1-.22-.72V95.24A2.66,2.66,0,0,0,124,94a.89.89,0,0,0-.88-.42,1.3,1.3,0,0,0-.78.25,1.46,1.46,0,0,0-.52.7,5,5,0,0,0-.12,1.34v2a1,1,0,0,1-.23.73.76.76,0,0,1-.58.24.72.72,0,0,1-.57-.25,1.05,1.05,0,0,1-.22-.72V93.29a1,1,0,0,1,.2-.68.69.69,0,0,1,.54-.23.74.74,0,0,1,.38.1.71.71,0,0,1,.27.3A1.05,1.05,0,0,1,121.58,93.26Z"/><path d="M128.19,91.63a.84.84,0,0,1-.57-.21.8.8,0,0,1,0-1.14.82.82,0,0,1,.57-.22.84.84,0,0,1,.55.2.71.71,0,0,1,.24.58.73.73,0,0,1-.23.58A.81.81,0,0,1,128.19,91.63Zm.79,1.65v4.62a1,1,0,0,1-.23.73.76.76,0,0,1-.58.25.72.72,0,0,1-.57-.25,1.06,1.06,0,0,1-.22-.72V93.33a1,1,0,0,1,.22-.71.74.74,0,0,1,.57-.24.77.77,0,0,1,.58.24A.93.93,0,0,1,129,93.29Z"/><path d="M130.72,92.52h.18v-1q0-.39,0-.61a.9.9,0,0,1,.11-.38.72.72,0,0,1,.27-.27.76.76,0,0,1,.39-.1.79.79,0,0,1,.55.23.68.68,0,0,1,.21.37,3.38,3.38,0,0,1,0,.62v1.09h.59a.75.75,0,0,1,.52.16.53.53,0,0,1,.18.41.46.46,0,0,1-.25.45,1.65,1.65,0,0,1-.73.13h-.3v2.94a4.77,4.77,0,0,0,0,.58.59.59,0,0,0,.14.33.48.48,0,0,0,.37.13,2,2,0,0,0,.38,0,2,2,0,0,1,.38,0,.48.48,0,0,1,.35.16.52.52,0,0,1,.16.38.64.64,0,0,1-.42.59,2.85,2.85,0,0,1-1.21.21,2.1,2.1,0,0,1-1.14-.25,1.17,1.17,0,0,1-.51-.7,4.73,4.73,0,0,1-.12-1.19V93.67h-.21a.76.76,0,0,1-.53-.16.54.54,0,0,1-.18-.42.52.52,0,0,1,.19-.41A.84.84,0,0,1,130.72,92.52Z"/><path d="M136.35,99.08l.15-.36-2-5a1.86,1.86,0,0,1-.18-.62.73.73,0,0,1,.11-.38.79.79,0,0,1,.29-.28.76.76,0,0,1,.38-.11.63.63,0,0,1,.52.22,2,2,0,0,1,.31.63l1.35,3.94,1.28-3.66a6.32,6.32,0,0,1,.28-.7.82.82,0,0,1,.26-.34.72.72,0,0,1,.39-.09.69.69,0,0,1,.35.1.67.67,0,0,1,.26.26.7.7,0,0,1,.09.35l-.08.32q-.05.21-.13.42l-2.09,5.46a6.38,6.38,0,0,1-.53,1.13,1.74,1.74,0,0,1-.68.63,2.51,2.51,0,0,1-1.15.22,2.78,2.78,0,0,1-1.05-.15.56.56,0,0,1-.35-.56.54.54,0,0,1,.17-.42.72.72,0,0,1,.5-.15.91.91,0,0,1,.25,0l.26,0a1,1,0,0,0,.43-.08.76.76,0,0,0,.28-.28A4.36,4.36,0,0,0,136.35,99.08Z"/></g></g></g></svg>